<?xml version="1.0" encoding="UTF-8" standalone="no"?>
<svg width="30px" height="30px" viewBox="0 0 30 30" version="1.1" xmlns="http://www.w3.org/2000/svg" xmlns:xlink="http://www.w3.org/1999/xlink">
    <!-- Generator: Sketch 3.7.2 (28276) - http://www.bohemiancoding.com/sketch -->
    <title>cell-phone</title>
    <desc>Created with Sketch.</desc>
    <defs></defs>
    <g id="Icons" stroke="none" stroke-width="1" fill="none" fill-rule="evenodd">
        <g id="cell-phone" transform="translate(-15.000000, -15.000000)" stroke="#000000">
            <path d="M38.4375,41.875 C38.4375,43.255 37.4295,44.375 36.1875,44.375 L23.8125,44.375 C22.5705,44.375 21.5625,43.255 21.5625,41.875 L21.5625,18.125 C21.5625,16.745 22.5705,15.625 23.8125,15.625 L36.1875,15.625 C37.4295,15.625 38.4375,16.745 38.4375,18.125 L38.4375,41.875 L38.4375,41.875 Z M38.4375,20.625 L21.5625,20.625 L38.4375,20.625 Z M30,42.5 C30.3106602,42.5 30.5625,42.220178 30.5625,41.875 C30.5625,41.529822 30.3106602,41.25 30,41.25 C29.6893398,41.25 29.4375,41.529822 29.4375,41.875 C29.4375,42.220178 29.6893398,42.5 30,42.5 Z M38.4375,39.375 L21.5625,39.375 L38.4375,39.375 Z M27.1875,18.125 L32.8125,18.125 L27.1875,18.125 Z" id="Shape"></path>
        </g>
    </g>
</svg>