<?xml version="1.0" encoding="UTF-8" standalone="no"?>
<svg width="30px" height="30px" viewBox="0 0 30 30" version="1.1" xmlns="http://www.w3.org/2000/svg" xmlns:xlink="http://www.w3.org/1999/xlink">
    <!-- Generator: Sketch 3.7.2 (28276) - http://www.bohemiancoding.com/sketch -->
    <title>location</title>
    <desc>Created with Sketch.</desc>
    <defs></defs>
    <g id="Icons" stroke="none" stroke-width="1" fill="none" fill-rule="evenodd">
        <g id="location" transform="translate(-15.000000, -15.000000)" fill="#000000">
            <path d="M29.8275862,17.0689655 C25.5496767,17.0689655 22.0689655,20.6706444 22.0689655,25.0979343 C22.0689655,28.561353 27.0887931,37.4416097 29.8275862,41.8965517 C32.5663793,37.4416097 37.5862069,28.561353 37.5862069,25.0979343 C37.5862069,20.6706444 34.1054957,17.0689655 29.8275862,17.0689655 L29.8275862,17.0689655 Z M29.8275862,45 L29.0040345,43.7467973 C28.6364828,43.1883047 20,29.9956216 20,24.8563228 C20,19.421237 24.4086552,15 29.8275862,15 C35.2465172,15 39.6551724,19.421237 39.6551724,24.8563228 C39.6551724,29.9956216 31.0186897,43.1883047 30.6511379,43.7467973 L29.8275862,45 Z M29.8275862,22.2413793 C28.402069,22.2413793 27.2413793,23.402069 27.2413793,24.8275862 C27.2413793,26.2531034 28.402069,27.4137931 29.8275862,27.4137931 C31.2531034,27.4137931 32.4137931,26.2531034 32.4137931,24.8275862 C32.4137931,23.402069 31.2531034,22.2413793 29.8275862,22.2413793 Z M29.8275862,28.4482759 C27.8310345,28.4482759 26.2068966,26.8241379 26.2068966,24.8275862 C26.2068966,22.8310345 27.8310345,21.2068966 29.8275862,21.2068966 C31.8241379,21.2068966 33.4482759,22.8310345 33.4482759,24.8275862 C33.4482759,26.8241379 31.8241379,28.4482759 29.8275862,28.4482759 Z" id="Combined-Shape"></path>
        </g>
    </g>
</svg>