<?xml version="1.0" encoding="UTF-8" standalone="no"?>
<svg width="30px" height="30px" viewBox="0 0 30 30" version="1.1" xmlns="http://www.w3.org/2000/svg" xmlns:xlink="http://www.w3.org/1999/xlink">
    <!-- Generator: Sketch 3.7.2 (28276) - http://www.bohemiancoding.com/sketch -->
    <title>search</title>
    <desc>Created with Sketch.</desc>
    <defs></defs>
    <g id="Icons" stroke="none" stroke-width="1" fill="none" fill-rule="evenodd">
        <g id="search" transform="translate(-15.000000, -15.000000)" fill="#000000">
            <path d="M34.1835833,15.0150303 C28.2221894,15.0150303 23.3711591,19.8604242 23.3711591,25.8180606 C23.3711591,27.7748182 23.9019167,29.6066364 24.8168864,31.1923333 L15.7348258,40.265 C14.6329167,41.3650303 14.6329167,43.1498788 15.7348258,44.2499091 C16.2843712,44.8003939 17.0058258,45.0756364 17.7282197,45.0756364 C18.4506136,45.0756364 19.1720682,44.8003939 19.722553,44.2499091 L28.8046136,35.1772424 C30.3903106,36.0912727 32.2258864,36.6210909 34.1835833,36.6210909 C40.1487348,36.6210909 44.9997652,31.775697 44.9997652,25.8180606 C44.9997652,19.8604242 40.1459167,15.0150303 34.1835833,15.0150303 L34.1835833,15.0150303 Z M18.3933106,42.9216061 C18.1537652,43.1611515 17.8738258,43.1968485 17.7282197,43.1968485 C17.583553,43.1968485 17.3036136,43.1611515 17.0631288,42.9216061 C16.8245227,42.6820606 16.7878864,42.4021212 16.7878864,42.2574545 C16.7878864,42.1127879 16.8235833,41.8328485 17.0631288,41.5942424 L25.9075227,32.7573636 C26.3124015,33.2383333 26.7567348,33.6817273 27.2367652,34.0866061 L18.3933106,42.9216061 L18.3933106,42.9216061 Z M34.1835833,34.742303 C29.2592803,34.742303 25.2527652,30.7386061 25.2527652,25.8180606 C25.2527652,20.8975152 29.2592803,16.8938182 34.1835833,16.8938182 C39.1097652,16.8938182 43.1172197,20.8975152 43.1172197,25.8180606 C43.1153409,30.7386061 39.1097652,34.742303 34.1835833,34.742303 L34.1835833,34.742303 Z M39.13325,20.7462727 C38.7650076,20.3789697 38.17225,20.3789697 37.8030682,20.7462727 C37.4348258,21.1126364 37.4348258,21.7072727 37.8030682,22.0745758 C39.8678561,24.1393636 39.8678561,27.497697 37.8040076,29.5615455 C37.4348258,29.9288485 37.4348258,30.5234848 37.8040076,30.8898485 C37.9871894,31.0730303 38.2286136,31.1650909 38.4690985,31.1650909 C38.7095833,31.1650909 38.9500682,31.0730303 39.1341894,30.8898485 C41.9335833,28.0942121 41.9335833,23.5437879 39.13325,20.7462727 L39.13325,20.7462727 Z" id="Shape" transform="translate(29.954080, 30.045333) scale(-1, 1) translate(-29.954080, -30.045333) "></path>
        </g>
    </g>
</svg>