<?xml version="1.0" encoding="UTF-8" standalone="no"?>
<svg width="30px" height="30px" viewBox="0 0 30 30" version="1.1" xmlns="http://www.w3.org/2000/svg" xmlns:xlink="http://www.w3.org/1999/xlink">
    <!-- Generator: Sketch 3.7.2 (28276) - http://www.bohemiancoding.com/sketch -->
    <title>book</title>
    <desc>Created with Sketch.</desc>
    <defs></defs>
    <g id="Icons" stroke="none" stroke-width="1" fill="none" fill-rule="evenodd">
        <g id="book" transform="translate(-15.000000, -15.000000)" fill="#000000">
            <path d="M37.7368421,41.8421053 L21.9473684,41.8421053 C21.5115789,41.8421053 21.1578947,41.4884211 21.1578947,41.0526316 C21.1578947,40.6168421 21.5115789,40.2631579 21.9473684,40.2631579 L37.7368421,40.2631579 C38.1726316,40.2631579 38.5263158,40.6168421 38.5263158,41.0526316 C38.5263158,41.4884211 38.1726316,41.8421053 37.7368421,41.8421053 Z M40.8947368,18.1578947 C40.4589474,18.1578947 40.1052632,18.5115789 40.1052632,18.9473684 L40.1052632,42.6315789 C40.1052632,43.0673684 39.7515789,43.4210526 39.3157895,43.4210526 L21.9473684,43.4210526 C20.6415789,43.4210526 19.5789474,42.3584211 19.5789474,41.0526316 C19.5789474,39.7468421 20.6415789,38.6842105 21.9473684,38.6842105 L36.1578947,38.6842105 C37.4636842,38.6842105 38.5263158,37.6215789 38.5263158,36.3157895 L38.5263158,17.3684211 C38.5263158,16.0626316 37.4636842,15 36.1578947,15 L20.3684211,15 C19.0626316,15 18,16.0626316 18,17.3684211 L18,41.0526316 C18,43.2284211 19.7715789,45 21.9473684,45 L39.3157895,45 C40.6215789,45 41.6842105,43.9373684 41.6842105,42.6315789 L41.6842105,18.9473684 C41.6842105,18.5115789 41.3305263,18.1578947 40.8947368,18.1578947 Z M20.3684211,16.5789474 L36.1578947,16.5789474 C36.5936842,16.5789474 36.9473684,16.9326316 36.9473684,17.3684211 L36.9473684,36.3157895 C36.9473684,36.7515789 36.5936842,37.1052632 36.1578947,37.1052632 L21.9473684,37.1052632 C21.06,37.1052632 20.2389474,37.4005263 19.5789474,37.8963158 L19.5789474,17.3684211 C19.5789474,16.9326316 19.9326316,16.5789474 20.3684211,16.5789474 Z" id="Combined-Shape"></path>
        </g>
    </g>
</svg>