<?xml version="1.0" encoding="UTF-8" standalone="no"?>
<svg width="30px" height="30px" viewBox="0 0 30 30" version="1.1" xmlns="http://www.w3.org/2000/svg" xmlns:xlink="http://www.w3.org/1999/xlink">
    <!-- Generator: Sketch 3.7.2 (28276) - http://www.bohemiancoding.com/sketch -->
    <title>calendar</title>
    <desc>Created with Sketch.</desc>
    <defs></defs>
    <g id="Icons" stroke="none" stroke-width="1" fill="none" fill-rule="evenodd">
        <g id="calendar" transform="translate(-15.000000, -15.000000)" fill="#000000">
            <path d="M42.500625,17.8125 L38.4375,17.8125 L38.4375,15.9375 C38.4375,15.4190625 38.0184375,15 37.5,15 C36.9815625,15 36.5625,15.4190625 36.5625,15.9375 L36.5625,17.8125 L30.9375,17.8125 L30.9375,15.9375 C30.9375,15.4190625 30.5175,15 30,15 C29.4825,15 29.0625,15.4190625 29.0625,15.9375 L29.0625,17.8125 L23.4375,17.8125 L23.4375,15.9375 C23.4375,15.4190625 23.0175,15 22.5,15 C21.9825,15 21.5625,15.4190625 21.5625,15.9375 L21.5625,17.8125 L17.5003125,17.8125 C16.119375,17.8125 15,18.9309375 15,20.311875 L15,42.4996875 C15,43.880625 16.119375,45 17.5003125,45 L42.500625,45 C43.8815625,45 45,43.880625 45,42.4996875 L45,20.311875 C45,18.9309375 43.8815625,17.8125 42.500625,17.8125 Z M43.125,42.4996875 C43.125,42.8446875 42.8446875,43.125 42.500625,43.125 L17.5003125,43.125 C17.1553125,43.125 16.875,42.8446875 16.875,42.4996875 L16.875,20.311875 C16.875,19.9678125 17.1553125,19.6875 17.5003125,19.6875 L21.5625,19.6875 L21.5625,21.5625 C21.5625,22.0809375 21.9825,22.5 22.5,22.5 C23.0175,22.5 23.4375,22.0809375 23.4375,21.5625 L23.4375,19.6875 L29.0625,19.6875 L29.0625,21.5625 C29.0625,22.0809375 29.4825,22.5 30,22.5 C30.5175,22.5 30.9375,22.0809375 30.9375,21.5625 L30.9375,19.6875 L36.5625,19.6875 L36.5625,21.5625 C36.5625,22.0809375 36.9815625,22.5 37.5,22.5 C38.0184375,22.5 38.4375,22.0809375 38.4375,21.5625 L38.4375,19.6875 L42.500625,19.6875 C42.8446875,19.6875 43.125,19.9678125 43.125,20.311875 L43.125,42.4996875 Z M21.5625,26.25 L25.3125,26.25 L25.3125,29.0625 L21.5625,29.0625 L21.5625,26.25 Z M21.5625,30.9375 L25.3125,30.9375 L25.3125,33.75 L21.5625,33.75 L21.5625,30.9375 Z M21.5625,35.625 L25.3125,35.625 L25.3125,38.4375 L21.5625,38.4375 L21.5625,35.625 Z M28.125,35.625 L31.875,35.625 L31.875,38.4375 L28.125,38.4375 L28.125,35.625 Z M28.125,30.9375 L31.875,30.9375 L31.875,33.75 L28.125,33.75 L28.125,30.9375 Z M28.125,26.25 L31.875,26.25 L31.875,29.0625 L28.125,29.0625 L28.125,26.25 Z M34.6875,35.625 L38.4375,35.625 L38.4375,38.4375 L34.6875,38.4375 L34.6875,35.625 Z M34.6875,30.9375 L38.4375,30.9375 L38.4375,33.75 L34.6875,33.75 L34.6875,30.9375 Z M34.6875,26.25 L38.4375,26.25 L38.4375,29.0625 L34.6875,29.0625 L34.6875,26.25 Z" id="Combined-Shape"></path>
        </g>
    </g>
</svg>