<?xml version="1.0" encoding="UTF-8" standalone="no"?>
<svg width="30px" height="30px" viewBox="0 0 30 30" version="1.1" xmlns="http://www.w3.org/2000/svg" xmlns:xlink="http://www.w3.org/1999/xlink">
    <!-- Generator: Sketch 3.7.2 (28276) - http://www.bohemiancoding.com/sketch -->
    <title>home</title>
    <desc>Created with Sketch.</desc>
    <defs></defs>
    <g id="Icons" stroke="none" stroke-width="1" fill="none" fill-rule="evenodd">
        <g id="home" transform="translate(-14.000000, -15.000000)" fill="#000000">
            <path d="M43.6431878,29.3506376 L29.7167825,17.2785056 C29.320959,16.8720365 28.4964074,16.9446202 28.2292992,17.27657 L14.3522508,29.3545087 C13.9244905,29.7309765 13.8799725,30.386166 14.2535369,30.8139263 C14.615488,31.2291055 15.3006787,31.2765269 15.7119867,30.9155436 L17.1220474,29.6864585 L17.1220474,43.3428522 C17.1220474,43.9138445 17.5856157,44.3783806 18.156608,44.3783806 L25.3694988,44.3783806 C25.9385555,44.3783806 26.4021238,43.9138445 26.4021238,43.3428522 L26.4021238,36.5170748 L31.5507323,36.5170748 L31.5507323,43.3428522 C31.5507323,43.9138445 32.0162362,44.3783806 32.5872285,44.3783806 L39.797216,44.3783806 C40.3682083,44.3783806 40.8317766,43.9138445 40.8317766,43.3428522 L40.8317766,29.6680706 L42.2863553,30.9145758 C42.7015344,31.2726557 43.3925319,31.2213632 43.7457729,30.8129585 C43.9277162,30.6039173 44.0167523,30.336809 43.9973966,30.0609907 C43.9780409,29.7851724 43.8531968,29.5335487 43.6431878,29.3506376 Z M32.5872285,34.4431146 L25.3704666,34.4431146 C24.7994743,34.4431146 24.3339704,34.9076507 24.3339704,35.4796108 L24.3339704,42.3082916 L19.1931042,42.3082916 L19.1931042,27.8825099 L28.9735247,19.3737569 L38.7645909,27.8844455 L38.7645909,42.3082916 L33.6188858,42.3082916 L33.6188858,35.4796108 C33.6188858,34.9076507 33.1562852,34.4431146 32.5872285,34.4431146 Z" id="Fill-1"></path>
        </g>
    </g>
</svg>